<?xml version="1.0" encoding="UTF-8" standalone="no"?><svg xmlns="http://www.w3.org/2000/svg" xmlns:xlink="http://www.w3.org/1999/xlink" contentScriptType="application/ecmascript" contentStyleType="text/css" height="206px" preserveAspectRatio="none" style="width:460px;height:206px;" version="1.1" viewBox="0 0 460 206" width="460px" zoomAndPan="magnify"><defs><filter height="300%" id="fq4317iko29of" width="300%" x="-1" y="-1"><feGaussianBlur result="blurOut" stdDeviation="2.0"/><feColorMatrix in="blurOut" result="blurOut2" type="matrix" values="0 0 0 0 0 0 0 0 0 0 0 0 0 0 0 0 0 0 .4 0"/><feOffset dx="4.0" dy="4.0" in="blurOut2" result="blurOut3"/><feBlend in="SourceGraphic" in2="blurOut3" mode="normal"/></filter></defs><g><!--MD5=[59f962bdcb44f7d4a302022cc29bcc7d]
entity 会員--><ellipse cx="34" cy="14" fill="#FEFECE" filter="url(#fq4317iko29of)" rx="8" ry="8" style="stroke:#A80036;stroke-width:1.5;"/><path d="M34,22 L34,49 M21,30 L47,30 M34,49 L21,64 M34,49 L47,64 " fill="none" filter="url(#fq4317iko29of)" style="stroke:#A80036;stroke-width:1.5;"/><text fill="#000000" font-family="sans-serif" font-size="14" lengthAdjust="spacing" textLength="28" x="20" y="82.4951">会員</text><!--MD5=[15d51dfe35166f2e1aeb462dd02b1ef0]
entity 図書館員--><ellipse cx="34" cy="130" fill="#FEFECE" filter="url(#fq4317iko29of)" rx="8" ry="8" style="stroke:#A80036;stroke-width:1.5;"/><path d="M34,138 L34,165 M21,146 L47,146 M34,165 L21,180 M34,165 L47,180 " fill="none" filter="url(#fq4317iko29of)" style="stroke:#A80036;stroke-width:1.5;"/><text fill="#000000" font-family="sans-serif" font-size="14" lengthAdjust="spacing" textLength="56" x="6" y="198.4951">図書館員</text><!--MD5=[b8ea3c5ededc5b416ea5c92f7c41b015]
entity 書籍通販会社--><rect fill="#FEFECE" filter="url(#fq4317iko29of)" height="36.2969" style="stroke:#A80036;stroke-width:1.5;" width="104" x="336.5" y="52"/><text fill="#000000" font-family="sans-serif" font-size="14" lengthAdjust="spacing" textLength="84" x="346.5" y="74.9951">書籍通販会社</text><ellipse cx="193.9293" cy="102.7859" fill="#FEFECE" filter="url(#fq4317iko29of)" rx="71.9293" ry="16.7859" style="stroke:#A80036;stroke-width:1.5;"/><text fill="#000000" font-family="sans-serif" font-size="14" lengthAdjust="spacing" textLength="98" x="141.9293" y="106.5334">図書館システム</text><path d="M326,123.5 L326,123.5 L252.6202,112.9458 L326,131.5 L326,148.6328 A0,0 0 0 0 326,148.6328 L451,148.6328 A0,0 0 0 0 451,148.6328 L451,133.5 L441,123.5 L326,123.5 A0,0 0 0 0 326,123.5 " fill="#FBFB77" filter="url(#fq4317iko29of)" style="stroke:#A80036;stroke-width:1.0;"/><path d="M441,123.5 L441,133.5 L451,133.5 L441,123.5 " fill="#FBFB77" style="stroke:#A80036;stroke-width:1.0;"/><text fill="#000000" font-family="sans-serif" font-size="13" lengthAdjust="spacing" textLength="104" x="332" y="140.5669">システム化の目的</text><!--MD5=[802dee305d5a3bfba8aa01ee35af1baa]
link 会員 to 図書館システム--><path d="M48.7656,50.3525 C72.5931,58.99 120.3102,76.2875 154.5521,88.7001 " fill="none" id="会員-図書館システム" style="stroke:#A80036;stroke-width:1.0;"/><!--MD5=[77f3c7da453b393ebf5da298cc495951]
link 図書館員 to 図書館システム--><path d="M62.2365,150.7643 C87.8943,141.4633 126.0013,127.6495 154.6435,117.2667 " fill="none" id="図書館員-図書館システム" style="stroke:#A80036;stroke-width:1.0;"/><!--MD5=[89bb71ff09624eaa8d0f31d9ce182f52]
link 図書館システム to 書籍通販会社--><path d="M252.6202,93.0542 C279.2414,88.5375 310.474,83.2383 336.2787,78.8602 " fill="none" id="図書館システム-書籍通販会社" style="stroke:#A80036;stroke-width:1.0;"/><!--MD5=[32b9fd9eaee326840a43f3119abcb53d]
@startuml
left to right direction

actor 会員
actor 図書館員
agent 書籍通販会社

会員 - - (図書館システム)
図書館員 - - (図書館システム)
note right : システム化の目的

(図書館システム) - - 書籍通販会社
@enduml

PlantUML version 1.2021.01(Tue Feb 02 07:55:08 UTC 2021)
(GPL source distribution)
Java Runtime: OpenJDK Runtime Environment
JVM: OpenJDK 64-Bit Server VM
Default Encoding: UTF-8
Language: en
Country: null
--></g></svg>