<?xml version="1.0" encoding="UTF-8" standalone="no"?><svg xmlns="http://www.w3.org/2000/svg" xmlns:xlink="http://www.w3.org/1999/xlink" contentScriptType="application/ecmascript" contentStyleType="text/css" height="239px" preserveAspectRatio="none" style="width:460px;height:239px;" version="1.1" viewBox="0 0 460 239" width="460px" zoomAndPan="magnify"><defs><filter height="300%" id="f4gcu2m53j2dq" width="300%" x="-1" y="-1"><feGaussianBlur result="blurOut" stdDeviation="2.0"/><feColorMatrix in="blurOut" result="blurOut2" type="matrix" values="0 0 0 0 0 0 0 0 0 0 0 0 0 0 0 0 0 0 .4 0"/><feOffset dx="4.0" dy="4.0" in="blurOut2" result="blurOut3"/><feBlend in="SourceGraphic" in2="blurOut3" mode="normal"/></filter></defs><g><!--MD5=[59f962bdcb44f7d4a302022cc29bcc7d]
entity 会員--><ellipse cx="20" cy="63.3732" fill="#FEFECE" filter="url(#f4gcu2m53j2dq)" rx="8" ry="8" style="stroke:#A80036;stroke-width:1.5;"/><path d="M20,71.3732 L20,98.3732 M7,79.3732 L33,79.3732 M20,98.3732 L7,113.3732 M20,98.3732 L33,113.3732 " fill="none" filter="url(#f4gcu2m53j2dq)" style="stroke:#A80036;stroke-width:1.5;"/><text fill="#000000" font-family="sans-serif" font-size="14" lengthAdjust="spacing" textLength="28" x="6" y="131.8683">会員</text><!--MD5=[a090666369c5fa6875a20f61955cfdf8]
entity 蔵書--><ellipse cx="299.5" cy="48.3732" fill="#FEFECE" filter="url(#f4gcu2m53j2dq)" rx="12" ry="12" style="stroke:#A80036;stroke-width:1.5;"/><line style="stroke:#A80036;stroke-width:1.5;" x1="287.5" x2="311.5" y1="62.3732" y2="62.3732"/><text fill="#000000" font-family="sans-serif" font-size="14" lengthAdjust="spacing" textLength="28" x="285.5" y="77.3683">蔵書</text><!--MD5=[f392ee28cb13843418c7d31bcfd375b4]
entity 窓口--><rect fill="#FEFECE" filter="url(#f4gcu2m53j2dq)" height="36.2969" style="stroke:#A80036;stroke-width:1.5;" width="48" x="400.5" y="38.3732"/><text fill="#000000" font-family="sans-serif" font-size="14" lengthAdjust="spacing" textLength="28" x="410.5" y="61.3683">窓口</text><!--MD5=[66cee071d8c29646963a7eadb015ab33]
entity 書籍店--><polygon fill="#FEFECE" filter="url(#f4gcu2m53j2dq)" points="258.5,196.3732,268.5,186.3732,340.5,186.3732,340.5,222.6701,330.5,232.6701,258.5,232.6701,258.5,196.3732" style="stroke:#000000;stroke-width:1.5;"/><line style="stroke:#000000;stroke-width:1.5;" x1="330.5" x2="340.5" y1="196.3732" y2="186.3732"/><line style="stroke:#000000;stroke-width:1.5;" x1="258.5" x2="330.5" y1="196.3732" y2="196.3732"/><line style="stroke:#000000;stroke-width:1.5;" x1="330.5" x2="330.5" y1="196.3732" y2="232.6701"/><text fill="#000000" font-family="sans-serif" font-size="14" lengthAdjust="spacing" textLength="42" x="273.5" y="219.3683">書籍店</text><ellipse cx="146.2843" cy="56.3968" fill="#FEFECE" filter="url(#f4gcu2m53j2dq)" rx="31.2843" ry="14.5236" style="stroke:#A80036;stroke-width:1.5;"/><text fill="#000000" font-family="sans-serif" font-size="14" lengthAdjust="spacing" textLength="28" x="132.2843" y="59.2435">棚卸</text><ellipse cx="146.3543" cy="126.5816" fill="#FEFECE" filter="url(#f4gcu2m53j2dq)" rx="51.8543" ry="14.7084" style="stroke:#A80036;stroke-width:1.5;"/><text fill="#000000" font-family="sans-serif" font-size="14" lengthAdjust="spacing" textLength="56" x="115.3543" y="130.3292">書籍補充</text><!--MD5=[4e714582c56faf7109eeaeba036ec51e]
link 会員 to 棚卸--><path d="M34.5112,90.0141 C55.2783,83.7758 93.8322,72.1944 119.8272,64.3856 " fill="none" id="会員-棚卸" style="stroke:#A80036;stroke-width:1.0;"/><!--MD5=[315f2cccea50be9f809ca92efa47f806]
link 棚卸 to 蔵書--><path d="M178.2017,56.3732 C210.2372,56.3732 258.4556,56.3732 283.3502,56.3732 " fill="none" id="棚卸-蔵書" style="stroke:#A80036;stroke-width:1.0;"/><!--MD5=[44a5a8610cb299f8e61fef3ae72d2805]
link 棚卸 to 窓口--><path d="M168.1449,45.5852 C190.2299,35.2258 225.8065,20.3017 258.5,14.3732 C294.3596,7.8706 305.0305,6 340.5,14.3732 C361.9225,19.4304 384.1106,30.8336 400.2995,40.4835 " fill="none" id="棚卸-窓口" style="stroke:#A80036;stroke-width:1.0;"/><!--MD5=[9835bddce6c2ba58f14792f154876abe]
link 会員 to 書籍補充--><path d="M34.5112,98.044 C52.293,102.5422 83.1155,110.3392 107.9284,116.616 " fill="none" id="会員-書籍補充" style="stroke:#A80036;stroke-width:1.0;"/><!--MD5=[763dfa8920570f6b36bf8733743dc75b]
link 書籍補充 to 蔵書--><path d="M173.8533,113.8586 C205.6562,99.3083 257.1107,75.767 283.2056,63.8282 " fill="none" id="書籍補充-蔵書" style="stroke:#A80036;stroke-width:1.0;"/><!--MD5=[d76ebffbdd4cab449093f159661d9eb7]
link 書籍補充 to 窓口--><path d="M197.2831,123.0454 C236.9825,119.4325 293.1814,112.0745 340.5,97.3732 C361.576,90.8252 383.9658,79.6631 400.3252,70.6375 " fill="none" id="書籍補充-窓口" style="stroke:#A80036;stroke-width:1.0;"/><!--MD5=[fe48d575d747af9c8eff9ae27043b806]
link 書籍補充 to 書籍店--><path d="M170.4063,139.3419 C193.939,152.1081 230.3411,171.8556 258.4988,187.1307 " fill="none" id="書籍補充-書籍店" style="stroke:#A80036;stroke-width:1.0;"/><!--MD5=[3d0345b544f9277b784df8ace64b7b3b]
@startuml
left to right direction

actor 会員
entity 蔵書
agent 窓口
node 書籍店

会員 - - (棚卸)
(棚卸) - - 蔵書
(棚卸) - - - 窓口

会員 - - (書籍補充)
(書籍補充) - - 蔵書
(書籍補充) - - - 窓口
(書籍補充) - - 書籍店
@enduml

PlantUML version 1.2021.01(Tue Feb 02 07:55:08 UTC 2021)
(GPL source distribution)
Java Runtime: OpenJDK Runtime Environment
JVM: OpenJDK 64-Bit Server VM
Default Encoding: UTF-8
Language: en
Country: null
--></g></svg>