<?xml version="1.0" encoding="UTF-8" standalone="no"?><svg xmlns="http://www.w3.org/2000/svg" xmlns:xlink="http://www.w3.org/1999/xlink" contentScriptType="application/ecmascript" contentStyleType="text/css" height="187px" preserveAspectRatio="none" style="width:399px;height:187px;" version="1.1" viewBox="0 0 399 187" width="399px" zoomAndPan="magnify"><defs><filter height="300%" id="fvv5ntx8s2x9g" width="300%" x="-1" y="-1"><feGaussianBlur result="blurOut" stdDeviation="2.0"/><feColorMatrix in="blurOut" result="blurOut2" type="matrix" values="0 0 0 0 0 0 0 0 0 0 0 0 0 0 0 0 0 0 .4 0"/><feOffset dx="4.0" dy="4.0" in="blurOut2" result="blurOut3"/><feBlend in="SourceGraphic" in2="blurOut3" mode="normal"/></filter></defs><g><rect fill="#FEFECE" filter="url(#fvv5ntx8s2x9g)" height="33.9688" rx="12.5" ry="12.5" style="stroke:#A80036;stroke-width:1.5;" width="68" x="165" y="11"/><text fill="#000000" font-family="sans-serif" font-size="12" lengthAdjust="spacing" textLength="48" x="175" y="32.1387">貸出期限</text><polygon fill="#FEFECE" filter="url(#fvv5ntx8s2x9g)" points="32,64.9688,109,64.9688,121,76.9688,109,88.9688,32,88.9688,20,76.9688,32,64.9688" style="stroke:#A80036;stroke-width:1.5;"/><text fill="#000000" font-family="sans-serif" font-size="11" lengthAdjust="spacing" textLength="20" x="74.5" y="99.1792">yes</text><text fill="#000000" font-family="sans-serif" font-size="11" lengthAdjust="spacing" textLength="77" x="32" y="80.7769">遅延日数＜３日</text><rect fill="#FEFECE" filter="url(#fvv5ntx8s2x9g)" height="33.9688" rx="12.5" ry="12.5" style="stroke:#A80036;stroke-width:1.5;" width="92" x="24.5" y="121.7734"/><text fill="#000000" font-family="sans-serif" font-size="12" lengthAdjust="spacing" textLength="72" x="34.5" y="142.9121">１人５冊まで</text><polygon fill="#FEFECE" filter="url(#fvv5ntx8s2x9g)" points="153,64.9688,230,64.9688,242,76.9688,230,88.9688,153,88.9688,141,76.9688,153,64.9688" style="stroke:#A80036;stroke-width:1.5;"/><text fill="#000000" font-family="sans-serif" font-size="11" lengthAdjust="spacing" textLength="20" x="195.5" y="99.1792">yes</text><text fill="#000000" font-family="sans-serif" font-size="11" lengthAdjust="spacing" textLength="77" x="153" y="80.7769">遅延日数＜７日</text><text fill="#000000" font-family="sans-serif" font-size="11" lengthAdjust="spacing" textLength="14" x="242" y="74.3745">no</text><rect fill="#FEFECE" filter="url(#fvv5ntx8s2x9g)" height="33.9688" rx="12.5" ry="12.5" style="stroke:#A80036;stroke-width:1.5;" width="116" x="133.5" y="121.7734"/><text fill="#000000" font-family="sans-serif" font-size="12" lengthAdjust="spacing" textLength="96" x="143.5" y="142.9121">本の貸し出し不可</text><rect fill="#FEFECE" filter="url(#fvv5ntx8s2x9g)" height="33.9688" rx="12.5" ry="12.5" style="stroke:#A80036;stroke-width:1.5;" width="116" x="266" y="118.3711"/><text fill="#000000" font-family="sans-serif" font-size="12" lengthAdjust="spacing" textLength="96" x="276" y="139.5098">本の貸し出し不可</text><line style="stroke:#A80036;stroke-width:1.5;" x1="70.5" x2="70.5" y1="88.9688" y2="121.7734"/><polygon fill="#A80036" points="66.5,111.7734,70.5,121.7734,74.5,111.7734,70.5,115.7734" style="stroke:#A80036;stroke-width:1.0;"/><line style="stroke:#A80036;stroke-width:1.5;" x1="70.5" x2="70.5" y1="155.7422" y2="175.7422"/><polygon fill="#A80036" points="66.5,165.7422,70.5,175.7422,74.5,165.7422,70.5,169.7422" style="stroke:#A80036;stroke-width:1.0;"/><line style="stroke:#A80036;stroke-width:1.5;" x1="191.5" x2="191.5" y1="88.9688" y2="121.7734"/><polygon fill="#A80036" points="187.5,111.7734,191.5,121.7734,195.5,111.7734,191.5,115.7734" style="stroke:#A80036;stroke-width:1.0;"/><line style="stroke:#A80036;stroke-width:1.5;" x1="191.5" x2="191.5" y1="155.7422" y2="175.7422"/><polygon fill="#A80036" points="187.5,165.7422,191.5,175.7422,195.5,165.7422,191.5,169.7422" style="stroke:#A80036;stroke-width:1.0;"/><line style="stroke:#A80036;stroke-width:1.5;" x1="121" x2="141" y1="76.9688" y2="76.9688"/><polygon fill="#A80036" points="131,72.9688,141,76.9688,131,80.9688,135,76.9688" style="stroke:#A80036;stroke-width:1.0;"/><line style="stroke:#A80036;stroke-width:1.5;" x1="199" x2="199" y1="44.9688" y2="49.9688"/><line style="stroke:#A80036;stroke-width:1.5;" x1="199" x2="70.5" y1="49.9688" y2="49.9688"/><line style="stroke:#A80036;stroke-width:1.5;" x1="70.5" x2="70.5" y1="49.9688" y2="64.9688"/><polygon fill="#A80036" points="66.5,54.9688,70.5,64.9688,74.5,54.9688,70.5,58.9688" style="stroke:#A80036;stroke-width:1.0;"/><line style="stroke:#A80036;stroke-width:1.5;" x1="242" x2="324" y1="76.9688" y2="76.9688"/><line style="stroke:#A80036;stroke-width:1.5;" x1="324" x2="324" y1="76.9688" y2="118.3711"/><polygon fill="#A80036" points="320,108.3711,324,118.3711,328,108.3711,324,112.3711" style="stroke:#A80036;stroke-width:1.0;"/><line style="stroke:#A80036;stroke-width:1.5;" x1="324" x2="324" y1="152.3398" y2="175.7422"/><polygon fill="#A80036" points="320,165.7422,324,175.7422,328,165.7422,324,169.7422" style="stroke:#A80036;stroke-width:1.0;"/><line style="stroke:#A80036;stroke-width:1.5;" x1="70.5" x2="324" y1="175.7422" y2="175.7422"/><!--MD5=[5609a552d84b620a3a142fd8b1a9773d]
@startuml
:貸出期限;
if (遅延日数＜３日) then (yes)
  :１人５冊まで;
elseif (遅延日数＜７日) then (yes)
  :本の貸し出し不可;
else (no)
  :本の貸し出し不可;
endif
@enduml

PlantUML version 1.2021.01(Tue Feb 02 07:55:08 UTC 2021)
(GPL source distribution)
Java Runtime: OpenJDK Runtime Environment
JVM: OpenJDK 64-Bit Server VM
Default Encoding: UTF-8
Language: en
Country: null
--></g></svg>